<?xml version="1.0" encoding="UTF-8" ?>
<!DOCTYPE svg PUBLIC "-//W3C//DTD SVG 1.1//EN" "http://www.w3.org/Graphics/SVG/1.1/DTD/svg11.dtd">
<svg width="21pt" height="20pt" viewBox="0 0 21 20" version="1.1" xmlns="http://www.w3.org/2000/svg">
<g id="#c74343c7">
<path fill="#c74343" opacity="0.78" d=" M 8.17 0.00 L 13.06 0.00 C 14.02 0.58 15.94 1.73 16.90 2.30 C 13.40 2.41 9.73 0.68 6.42 2.53 C 1.67 4.66 0.12 11.44 3.62 15.34 C 7.44 20.19 16.12 19.27 18.64 13.57 C 20.14 10.73 19.05 7.63 17.97 4.88 C 15.41 8.75 13.07 12.78 10.46 16.63 C 8.37 14.05 6.46 11.30 5.24 8.20 C 7.52 9.21 9.07 11.15 10.54 13.07 C 12.83 9.34 15.12 5.60 17.64 2.02 C 18.92 3.77 20.16 5.59 21.00 7.61 L 21.00 12.52 C 19.84 16.11 16.96 18.90 13.35 20.00 L 7.80 20.00 C 4.04 18.91 1.19 15.95 0.00 12.26 L 0.00 8.02 C 1.08 4.09 4.21 0.99 8.17 0.00 Z" />
</g>
</svg>
