<?xml version="1.0" encoding="UTF-8" ?>
<!DOCTYPE svg PUBLIC "-//W3C//DTD SVG 1.1//EN" "http://www.w3.org/Graphics/SVG/1.1/DTD/svg11.dtd">
<svg width="21pt" height="20pt" viewBox="0 0 21 20" version="1.1" xmlns="http://www.w3.org/2000/svg">
<g id="#158398c7">
<path fill="#158398" opacity="0.78" d=" M 8.20 0.00 L 13.09 0.00 C 14.02 0.56 15.87 1.67 16.79 2.23 C 13.54 2.72 10.27 0.62 7.12 2.23 C 1.90 3.99 -0.10 11.28 3.66 15.37 C 7.48 20.21 16.15 19.25 18.64 13.56 C 20.07 10.75 19.20 7.60 17.90 4.94 C 15.39 8.81 13.03 12.77 10.53 16.64 C 8.56 14.01 6.28 11.49 5.31 8.27 C 7.62 9.17 9.11 11.14 10.49 13.09 C 12.80 9.45 15.09 5.79 17.35 2.11 C 18.92 3.71 20.33 5.50 21.00 7.68 L 21.00 12.48 C 19.88 16.11 16.92 18.97 13.27 20.00 L 7.89 20.00 C 4.06 18.97 1.04 15.89 0.00 12.08 L 0.00 8.04 C 1.04 4.10 4.24 0.95 8.20 0.00 Z" />
</g>
</svg>
